<svg viewBox="0 0 1000 1000" xmlns="http://www.w3.org/2000/svg">
  <path d="M763.8,839.2c0-10.2-3.7-19-11.2-26.5c-7.5-7.5-16.3-11.2-26.5-11.2s-19,3.7-26.5,11.2c-7.5,7.5-11.2,16.3-11.2,26.5c0,10.2,3.7,19,11.2,26.5c7.5,7.5,16.3,11.2,26.5,11.2s19-3.7,26.5-11.2C760.1,858.3,763.8,849.4,763.8,839.2z M914.6,839.2c0-10.2-3.7-19-11.2-26.5c-7.5-7.5-16.3-11.2-26.5-11.2s-19,3.7-26.5,11.2c-7.5,7.5-11.2,16.3-11.2,26.5c0,10.2,3.7,19,11.2,26.5c7.5,7.5,16.3,11.2,26.5,11.2s19-3.7,26.5-11.2C910.9,858.3,914.6,849.4,914.6,839.2z M990,707.3v188.5c0,15.7-5.5,29.1-16.5,40s-24.3,16.5-40,16.5H66.5c-15.7,0-29.1-5.5-40-16.5c-11-11-16.5-24.3-16.5-40V707.3c0-15.7,5.5-29.1,16.5-40c11-11,24.3-16.5,40-16.5h273.9l79.5,80.1c22.8,22,49.5,33,80.1,33c30.6,0,57.3-11,80.1-33l80.1-80.1h273.3c15.7,0,29.1,5.5,40,16.5C984.5,678.3,990,691.6,990,707.3L990,707.3z M798.6,372.2c6.7,16.1,3.9,29.8-8.2,41.2L526.5,677.3c-7.1,7.5-15.9,11.2-26.5,11.2s-19.4-3.7-26.5-11.2L209.7,413.4c-12.2-11.4-14.9-25.1-8.2-41.2c6.7-15.3,18.3-23,34.7-23h150.8V85.4c0-10.2,3.7-19,11.2-26.5c7.5-7.5,16.3-11.2,26.5-11.2h150.8c10.2,0,19,3.7,26.5,11.2c7.5,7.5,11.2,16.3,11.2,26.5v263.8h150.8C780.3,349.2,791.9,356.9,798.6,372.2z" />
</svg>
